# xmcd
#
# Track frame offsets:
#	150
#	20204
#	41439
#	57447
#	82842
#	102776
#	120495
#	140014
#
# Disc length: 2440 seconds
#
# Revision: 0
# Processed by: cddbd v1.5.1PL2 Copyright (c) Steve Scherf et al.
# Submitted via: MusicManager 7.3.0.0 
#
DISCID=64098608
DTITLE=Joe Cocker - The best of Joe Cocker CD 2
DYEAR=1900
DGENRE=blues
TTITLE0=Shelter me
TTITLE1=Feels like forever
TTITLE2=Night calls
TTITLE3=Don't let the sun go down on me
TTITLE4=Now that you're gone
TTITLE5=Civilized man
TTITLE6=When a woman cries
TTITLE7=With a little help from my friends
EXTD=
EXTT0=
EXTT1=
EXTT2=
EXTT3=
EXTT4=
EXTT5=
EXTT6=
EXTT7=
PLAYORDER=
